<svg id="svg" version="1.1" xmlns="http://www.w3.org/2000/svg" xmlns:xlink="http://www.w3.org/1999/xlink" width="400" height="691.2820512820513" viewBox="0, 0, 400,691.2820512820513"><g id="svgg"><path id="path0" d="M191.200 0.347 C 189.454 0.669,189.579 0.739,195.200 2.593 C 203.790 5.425,217.571 11.771,225.127 16.373 C 226.957 17.488,228.542 18.400,228.651 18.400 C 229.371 18.400,241.048 26.671,247.000 31.398 C 261.470 42.887,276.159 60.120,284.337 75.200 C 293.534 92.159,298.268 106.134,301.953 127.200 C 304.762 143.257,304.635 168.251,301.640 188.800 C 301.432 190.230,301.061 192.840,300.816 194.600 C 300.571 196.360,300.202 198.700,299.995 199.800 C 299.789 200.900,299.245 203.870,298.787 206.400 C 295.473 224.707,291.203 242.708,286.215 259.400 C 283.725 267.734,277.724 285.354,275.999 289.400 C 275.811 289.840,275.182 291.460,274.600 293.000 C 274.019 294.540,273.196 296.563,272.772 297.496 C 272.347 298.428,272.000 299.293,272.000 299.418 C 272.000 299.542,271.662 300.399,271.249 301.322 C 270.836 302.245,269.644 304.980,268.600 307.400 C 265.677 314.176,265.384 314.804,260.760 324.240 C 256.531 332.869,249.246 346.287,246.281 350.908 C 245.466 352.177,244.800 353.299,244.800 353.400 C 244.800 353.890,236.800 366.078,232.065 372.800 C 223.642 384.760,214.295 396.049,205.294 405.135 C 201.081 409.387,200.313 410.450,201.707 410.093 C 202.198 409.967,202.821 409.555,203.091 409.178 C 203.361 408.800,204.036 408.377,204.591 408.238 C 205.146 408.099,205.600 407.808,205.600 407.592 C 205.600 407.377,205.915 407.197,206.300 407.194 C 206.898 407.189,206.913 407.131,206.400 406.800 C 205.891 406.471,205.908 406.411,206.519 406.406 C 206.915 406.403,207.680 405.924,208.219 405.342 C 208.800 404.715,209.200 404.506,209.200 404.831 C 209.200 405.160,209.435 405.043,209.791 404.535 C 210.116 404.071,210.836 403.577,211.391 403.438 C 211.946 403.299,212.400 403.008,212.400 402.792 C 212.400 402.577,212.715 402.397,213.100 402.394 C 213.698 402.389,213.713 402.331,213.200 402.000 C 212.710 401.683,212.757 401.611,213.457 401.606 C 213.929 401.603,214.422 401.319,214.554 400.975 C 214.686 400.631,214.961 400.452,215.165 400.578 C 215.369 400.704,215.807 400.536,216.139 400.204 C 216.471 399.872,216.946 399.600,217.195 399.600 C 217.444 399.600,217.536 399.420,217.400 399.200 C 217.185 398.852,217.996 398.610,218.900 398.753 C 219.065 398.779,219.200 398.609,219.200 398.376 C 219.200 398.143,219.380 398.064,219.600 398.200 C 219.820 398.336,220.000 398.257,220.000 398.024 C 220.000 397.791,220.188 397.600,220.418 397.600 C 220.648 397.600,221.286 397.150,221.836 396.600 C 222.386 396.050,223.178 395.600,223.596 395.600 C 224.013 395.600,224.612 395.232,224.927 394.783 C 225.242 394.333,226.017 393.872,226.650 393.759 C 227.282 393.646,227.860 393.384,227.933 393.176 C 228.007 392.969,228.367 392.797,228.733 392.794 C 229.310 392.789,229.319 392.735,228.800 392.400 C 228.312 392.084,228.362 392.011,229.071 392.006 C 229.551 392.003,230.181 391.775,230.471 391.500 C 230.762 391.225,231.360 390.939,231.800 390.863 C 232.240 390.788,232.660 390.563,232.733 390.363 C 232.807 390.164,233.132 390.000,233.457 390.000 C 233.782 390.000,233.936 389.820,233.800 389.600 C 233.660 389.374,233.986 389.200,234.548 389.200 C 235.095 389.200,235.813 388.930,236.143 388.600 C 236.473 388.270,236.936 388.000,237.171 388.000 C 237.407 388.000,237.600 387.834,237.600 387.632 C 237.600 387.429,238.128 387.148,238.772 387.006 C 239.417 386.864,240.158 386.492,240.418 386.179 C 240.678 385.865,241.050 385.707,241.245 385.828 C 241.440 385.949,241.600 385.857,241.600 385.624 C 241.600 385.391,241.941 385.200,242.357 385.200 C 242.774 385.200,243.202 384.971,243.310 384.691 C 243.417 384.411,244.021 384.140,244.652 384.088 C 245.284 384.036,245.860 383.815,245.933 383.597 C 246.007 383.378,246.245 383.200,246.462 383.200 C 246.679 383.200,247.127 382.930,247.457 382.600 C 247.787 382.270,248.502 382.000,249.045 382.000 C 249.589 382.000,250.420 381.640,250.892 381.200 C 251.364 380.760,252.077 380.400,252.475 380.400 C 252.874 380.400,253.200 380.228,253.200 380.018 C 253.200 379.808,253.830 379.518,254.600 379.374 C 255.370 379.229,256.000 378.951,256.000 378.755 C 256.000 378.560,256.495 378.397,257.100 378.394 C 257.957 378.389,258.068 378.302,257.600 378.000 C 257.145 377.706,257.314 377.611,258.300 377.606 C 259.015 377.603,259.600 377.401,259.600 377.157 C 259.600 376.914,259.870 376.818,260.200 376.945 C 260.530 377.071,260.800 377.001,260.800 376.787 C 260.800 376.574,261.295 376.397,261.900 376.394 C 262.757 376.389,262.868 376.302,262.400 376.000 C 261.943 375.705,262.102 375.611,263.067 375.606 C 263.763 375.603,264.393 375.430,264.467 375.221 C 264.540 375.013,265.230 374.733,266.000 374.600 C 266.770 374.467,267.460 374.187,267.533 373.979 C 267.607 373.770,268.112 373.600,268.657 373.600 C 269.215 373.600,269.539 373.426,269.400 373.200 C 269.264 372.980,269.523 372.778,269.976 372.750 C 271.284 372.671,271.516 372.617,271.806 372.328 C 271.956 372.178,272.331 372.152,272.639 372.270 C 272.948 372.389,273.200 372.286,273.200 372.043 C 273.200 371.799,273.470 371.600,273.800 371.600 C 274.130 371.600,274.400 371.444,274.400 371.254 C 274.400 371.064,275.206 370.798,276.191 370.663 C 277.176 370.528,278.301 370.246,278.691 370.035 C 279.081 369.825,279.985 369.417,280.700 369.129 C 281.415 368.840,282.000 368.480,282.000 368.327 C 282.000 368.174,282.810 367.928,283.800 367.779 C 284.790 367.631,285.600 367.350,285.600 367.155 C 285.600 366.960,285.793 366.800,286.029 366.800 C 286.264 366.800,286.727 366.530,287.057 366.200 C 287.387 365.870,288.058 365.600,288.549 365.600 C 289.580 365.600,291.592 364.742,291.597 364.300 C 291.599 364.135,291.881 364.000,292.224 364.000 C 292.567 364.000,292.736 363.820,292.600 363.600 C 292.464 363.380,292.588 363.187,292.876 363.170 C 294.214 363.094,295.412 362.742,295.533 362.388 C 295.607 362.175,295.907 362.000,296.200 362.000 C 296.493 362.000,296.795 361.816,296.870 361.591 C 296.945 361.366,297.545 361.087,298.203 360.972 C 298.861 360.856,299.670 360.446,300.000 360.061 C 300.330 359.676,301.230 359.073,302.000 358.722 C 302.770 358.371,303.940 357.840,304.600 357.542 C 305.260 357.244,306.038 356.775,306.329 356.500 C 306.619 356.225,307.114 356.000,307.429 356.000 C 307.743 356.000,308.000 355.820,308.000 355.600 C 308.000 355.380,308.315 355.197,308.700 355.194 C 309.242 355.189,309.278 355.111,308.860 354.846 C 308.480 354.605,308.725 354.428,309.693 354.246 C 310.448 354.105,311.461 353.534,311.944 352.978 C 312.428 352.422,312.998 352.075,313.212 352.207 C 313.425 352.339,313.600 352.265,313.600 352.042 C 313.600 351.820,314.223 351.342,314.985 350.980 C 315.747 350.619,316.487 349.956,316.629 349.509 C 316.809 348.942,316.979 348.843,317.188 349.181 C 317.400 349.523,317.743 349.344,318.344 348.580 C 318.815 347.982,319.200 347.698,319.200 347.950 C 319.200 348.201,319.763 347.869,320.451 347.211 C 321.139 346.554,321.824 346.092,321.974 346.184 C 322.124 346.276,322.576 345.913,322.979 345.376 C 323.382 344.839,323.981 344.400,324.309 344.400 C 324.923 344.400,326.400 342.944,326.400 342.339 C 326.400 342.152,326.749 342.000,327.176 342.000 C 327.603 342.000,328.081 341.792,328.238 341.538 C 328.426 341.234,328.332 341.177,327.962 341.373 C 327.653 341.536,327.850 341.297,328.400 340.841 C 328.950 340.386,329.715 339.908,330.100 339.780 C 330.485 339.651,330.800 339.406,330.800 339.234 C 330.800 339.063,331.160 338.507,331.600 338.000 C 332.040 337.493,332.400 337.285,332.400 337.539 C 332.400 337.801,332.718 337.697,333.137 337.300 C 333.542 336.915,333.801 336.465,333.713 336.300 C 333.625 336.135,333.821 336.000,334.149 336.000 C 334.478 336.000,334.868 335.616,335.017 335.147 C 335.202 334.565,335.382 334.447,335.586 334.777 C 335.808 335.136,336.051 335.092,336.542 334.601 C 337.404 333.739,337.391 333.347,336.523 334.051 C 336.003 334.473,335.920 334.478,336.162 334.075 C 336.336 333.787,336.921 333.382,337.463 333.176 C 338.059 332.949,338.335 332.619,338.162 332.339 C 337.991 332.061,338.051 331.984,338.314 332.147 C 338.555 332.296,338.988 332.135,339.276 331.790 C 339.564 331.444,340.033 330.945,340.319 330.681 C 340.604 330.416,341.709 329.325,342.774 328.255 C 343.839 327.186,344.891 326.131,345.111 325.911 C 345.331 325.691,345.981 325.073,346.555 324.537 C 347.130 324.002,347.600 323.437,347.600 323.282 C 347.601 322.862,349.608 320.608,350.032 320.550 C 350.235 320.523,350.580 320.478,350.800 320.450 C 351.020 320.423,351.200 320.084,351.200 319.697 C 351.200 319.311,351.875 318.374,352.700 317.615 C 353.525 316.856,354.155 316.092,354.100 315.917 C 354.045 315.743,354.315 315.597,354.700 315.594 C 355.298 315.589,355.313 315.531,354.800 315.200 C 354.310 314.883,354.357 314.811,355.057 314.806 C 355.634 314.802,355.995 314.474,356.164 313.800 C 356.302 313.250,356.592 312.800,356.808 312.800 C 357.023 312.800,357.200 312.541,357.200 312.224 C 357.200 311.907,357.408 311.519,357.662 311.362 C 357.975 311.168,358.015 311.257,357.785 311.638 C 357.497 312.117,357.547 312.119,358.123 311.651 C 358.495 311.349,358.800 310.853,358.800 310.548 C 358.800 310.244,359.250 309.603,359.800 309.125 C 360.350 308.647,360.800 308.013,360.800 307.715 C 360.800 307.418,361.069 307.072,361.398 306.946 C 361.726 306.819,361.896 306.555,361.774 306.358 C 361.652 306.161,361.833 306.000,362.176 306.000 C 362.522 306.000,362.800 305.662,362.800 305.243 C 362.800 304.826,363.070 304.382,363.400 304.255 C 363.730 304.129,364.003 303.614,364.006 303.113 C 364.011 302.377,364.087 302.316,364.400 302.800 C 364.731 303.313,364.789 303.298,364.794 302.700 C 364.797 302.315,364.999 302.000,365.243 302.000 C 365.486 302.000,365.590 301.750,365.472 301.444 C 365.250 300.865,366.544 299.200,367.216 299.200 C 367.427 299.200,367.600 298.834,367.600 298.387 C 367.600 297.941,367.870 297.471,368.200 297.345 C 368.530 297.218,368.800 296.793,368.800 296.400 C 368.800 296.007,369.079 295.579,369.419 295.448 C 369.759 295.317,370.227 294.668,370.458 294.005 C 370.689 293.342,371.086 292.797,371.339 292.794 C 371.619 292.790,371.583 292.650,371.247 292.438 C 370.812 292.162,370.873 292.031,371.533 291.821 C 372.094 291.643,372.460 291.085,372.638 290.138 C 372.825 289.142,373.006 288.881,373.246 289.260 C 373.482 289.634,373.590 289.454,373.594 288.676 C 373.597 288.030,373.770 287.658,374.000 287.800 C 374.220 287.936,374.400 287.767,374.400 287.424 C 374.400 287.081,374.591 286.800,374.824 286.800 C 375.057 286.800,375.153 286.647,375.037 286.461 C 374.922 286.274,375.181 285.741,375.614 285.277 C 376.046 284.813,376.400 284.055,376.400 283.593 C 376.400 283.131,376.578 282.863,376.795 282.997 C 377.018 283.135,377.092 282.983,376.964 282.652 C 376.840 282.327,377.067 281.718,377.469 281.298 C 377.871 280.877,378.259 280.278,378.330 279.967 C 378.402 279.655,378.627 279.340,378.830 279.267 C 379.034 279.193,379.200 278.878,379.200 278.567 C 379.200 278.255,379.360 278.000,379.555 278.000 C 379.751 278.000,380.036 277.335,380.188 276.521 C 380.341 275.708,380.811 274.604,381.233 274.067 C 381.655 273.531,382.000 272.765,382.000 272.366 C 382.000 271.967,382.225 271.496,382.500 271.320 C 382.775 271.144,383.018 270.775,383.040 270.500 C 383.193 268.581,383.196 268.575,383.600 269.200 C 383.901 269.666,383.989 269.547,383.994 268.671 C 383.997 268.051,384.270 267.273,384.600 266.943 C 384.930 266.613,385.200 266.006,385.200 265.595 C 385.200 265.184,385.380 264.736,385.600 264.600 C 385.820 264.464,386.000 264.018,386.000 263.610 C 386.000 263.201,386.164 262.807,386.364 262.733 C 386.564 262.660,386.825 261.973,386.944 261.207 C 387.062 260.440,387.349 259.750,387.580 259.673 C 387.811 259.596,388.000 259.358,388.000 259.143 C 388.000 258.928,387.807 258.872,387.570 259.018 C 387.334 259.164,387.378 258.905,387.667 258.442 C 387.956 257.979,388.329 257.600,388.496 257.600 C 388.663 257.600,388.800 257.075,388.800 256.433 C 388.800 255.792,388.978 255.207,389.197 255.133 C 389.415 255.060,389.663 254.394,389.750 253.653 C 389.836 252.912,390.152 252.149,390.453 251.959 C 390.902 251.674,390.893 251.610,390.400 251.600 C 390.020 251.592,389.958 251.480,390.229 251.294 C 390.925 250.817,391.338 249.665,391.767 247.000 C 391.909 246.120,392.207 245.337,392.429 245.261 C 392.687 245.173,392.664 244.918,392.368 244.561 C 392.032 244.156,392.027 244.000,392.351 244.000 C 392.598 244.000,392.800 243.655,392.800 243.233 C 392.800 242.812,392.970 242.407,393.178 242.333 C 393.386 242.260,393.674 240.940,393.818 239.400 C 393.962 237.860,394.242 236.540,394.440 236.467 C 394.638 236.393,394.800 235.708,394.800 234.943 C 394.800 234.178,394.942 233.640,395.115 233.748 C 395.288 233.855,395.469 233.479,395.516 232.912 C 395.563 232.345,395.760 231.683,395.955 231.440 C 396.149 231.198,396.426 229.560,396.569 227.800 C 396.713 226.040,397.003 224.540,397.215 224.467 C 397.427 224.393,397.600 223.358,397.600 222.167 C 397.600 220.975,397.780 220.000,398.000 220.000 C 398.220 220.000,398.400 219.809,398.400 219.576 C 398.400 219.343,398.175 219.288,397.900 219.453 C 397.507 219.690,397.503 219.627,397.881 219.158 C 398.146 218.831,398.360 218.211,398.357 217.782 C 398.332 214.596,398.982 208.148,399.351 207.906 C 399.669 207.698,399.654 207.610,399.300 207.606 C 398.673 207.598,398.637 206.121,399.258 205.914 C 399.905 205.698,399.901 176.941,399.253 176.293 C 398.644 175.684,398.676 174.402,399.300 174.394 C 399.645 174.390,399.664 174.297,399.361 174.094 C 399.117 173.931,398.808 171.899,398.666 169.531 C 398.526 167.184,398.194 164.786,397.928 164.203 C 397.533 163.334,397.550 163.077,398.023 162.777 C 398.421 162.525,398.445 162.410,398.100 162.406 C 397.769 162.402,397.600 161.737,397.600 160.433 C 397.600 159.352,397.438 158.407,397.240 158.333 C 396.913 158.212,396.274 153.987,396.328 152.300 C 396.340 151.915,396.181 151.600,395.975 151.600 C 395.769 151.600,395.600 150.790,395.600 149.800 C 395.600 148.810,395.420 148.000,395.200 148.000 C 394.980 148.000,394.800 147.550,394.800 147.000 C 394.800 146.450,394.650 146.000,394.467 146.000 C 394.283 146.000,394.120 145.775,394.104 145.500 C 394.088 145.225,393.980 144.370,393.864 143.600 C 393.749 142.830,393.642 141.694,393.627 141.076 C 393.612 140.434,393.429 140.059,393.200 140.200 C 392.980 140.336,392.800 140.113,392.800 139.704 C 392.800 139.295,392.584 138.744,392.320 138.480 C 391.947 138.107,391.969 137.999,392.420 137.994 C 392.870 137.989,392.885 137.915,392.489 137.664 C 392.209 137.486,391.869 136.413,391.735 135.280 C 391.601 134.147,391.335 133.316,391.145 133.434 C 390.955 133.551,390.797 132.962,390.794 132.124 C 390.789 130.993,390.688 130.755,390.400 131.200 C 390.091 131.678,390.005 131.597,389.976 130.800 C 389.955 130.250,389.863 129.485,389.769 129.100 C 389.676 128.715,389.545 128.135,389.478 127.812 C 389.411 127.488,389.231 127.098,389.078 126.945 C 388.925 126.792,388.800 126.236,388.800 125.710 C 388.800 125.174,388.624 124.862,388.400 125.000 C 388.180 125.136,388.000 124.892,388.000 124.457 C 388.000 124.022,387.824 123.607,387.608 123.533 C 387.393 123.460,387.120 122.590,387.002 121.600 C 386.873 120.526,386.479 119.542,386.023 119.160 C 385.602 118.807,385.142 117.817,385.001 116.960 C 384.666 114.940,383.986 113.562,383.478 113.875 C 383.257 114.012,383.179 113.957,383.305 113.754 C 383.430 113.551,383.194 112.668,382.780 111.792 C 382.366 110.917,382.021 109.795,382.014 109.300 C 382.005 108.746,381.753 108.400,381.357 108.400 C 380.963 108.400,380.800 108.178,380.935 107.826 C 381.056 107.510,380.983 107.194,380.774 107.125 C 380.564 107.055,380.306 106.548,380.201 105.999 C 380.095 105.449,379.740 104.802,379.411 104.560 C 379.082 104.319,378.930 104.003,379.074 103.859 C 379.219 103.715,378.959 103.193,378.498 102.698 C 378.037 102.204,377.536 101.305,377.386 100.700 C 377.236 100.095,376.953 99.600,376.757 99.600 C 376.560 99.600,376.400 99.255,376.400 98.833 C 376.400 98.412,376.191 97.997,375.937 97.912 C 375.682 97.827,375.407 97.324,375.326 96.793 C 375.245 96.263,374.824 95.451,374.389 94.989 C 373.955 94.527,373.600 93.935,373.600 93.674 C 373.600 93.413,373.423 93.200,373.208 93.200 C 372.992 93.200,372.697 92.728,372.552 92.150 C 372.407 91.573,371.747 90.583,371.085 89.950 C 370.361 89.258,370.104 88.795,370.441 88.787 C 370.853 88.778,370.816 88.635,370.300 88.243 C 369.915 87.951,369.597 87.372,369.594 86.956 C 369.589 86.368,369.510 86.323,369.237 86.753 C 368.981 87.157,368.808 86.948,368.595 85.976 C 368.285 84.564,367.889 84.031,366.600 83.286 C 366.160 83.032,366.038 82.819,366.329 82.812 C 366.726 82.803,366.701 82.644,366.229 82.171 C 365.883 81.826,365.600 81.275,365.600 80.948 C 365.600 80.621,365.420 80.464,365.200 80.600 C 364.980 80.736,364.800 80.579,364.800 80.251 C 364.800 79.922,364.457 79.545,364.037 79.412 C 363.617 79.279,363.169 78.897,363.042 78.564 C 362.910 78.220,362.980 78.064,363.205 78.203 C 364.049 78.725,363.546 77.749,362.608 77.045 C 362.062 76.635,361.715 76.137,361.837 75.940 C 361.959 75.742,361.837 75.630,361.565 75.690 C 361.293 75.751,360.938 75.350,360.775 74.800 C 360.613 74.250,360.462 73.948,360.440 74.129 C 360.379 74.631,359.200 73.327,359.200 72.757 C 359.200 72.482,358.534 71.647,357.719 70.901 C 356.905 70.155,356.199 69.275,356.151 68.946 C 356.103 68.617,355.599 67.948,355.032 67.461 C 354.464 66.973,354.000 66.388,354.000 66.159 C 354.000 65.530,352.007 63.909,351.964 64.503 C 351.944 64.776,351.762 64.426,351.559 63.725 C 351.356 63.024,350.842 62.340,350.416 62.205 C 349.990 62.070,349.533 61.617,349.400 61.200 C 349.267 60.783,348.808 60.330,348.380 60.194 C 347.951 60.057,347.600 59.638,347.600 59.262 C 347.600 58.460,346.253 57.200,345.395 57.200 C 345.068 57.200,344.778 57.020,344.750 56.800 C 344.723 56.580,344.655 56.220,344.600 56.000 C 344.545 55.780,344.475 55.465,344.444 55.300 C 344.413 55.135,344.213 55.270,344.000 55.600 C 343.668 56.114,343.611 56.100,343.606 55.505 C 343.598 54.637,342.402 53.200,341.687 53.200 C 341.393 53.200,341.264 53.020,341.400 52.800 C 341.536 52.580,341.289 52.400,340.851 52.400 C 340.412 52.400,339.943 52.049,339.806 51.620 C 339.670 51.192,339.217 50.733,338.800 50.600 C 338.383 50.467,337.927 50.001,337.788 49.563 C 337.641 49.099,337.049 48.670,336.368 48.534 C 335.621 48.384,335.200 48.052,335.200 47.612 C 335.200 47.234,334.798 46.581,334.307 46.162 C 333.423 45.408,333.420 45.408,333.978 46.200 C 334.288 46.640,333.783 46.228,332.857 45.285 C 331.931 44.341,331.018 43.665,330.829 43.782 C 330.640 43.899,330.378 43.569,330.248 43.048 C 330.082 42.385,329.630 42.026,328.741 41.848 C 328.043 41.709,327.580 41.487,327.712 41.355 C 328.001 41.066,326.203 39.200,325.636 39.200 C 325.416 39.200,324.786 38.750,324.236 38.200 C 323.686 37.650,323.048 37.200,322.818 37.200 C 322.588 37.200,322.400 37.037,322.400 36.837 C 322.400 36.638,321.995 36.564,321.500 36.672 C 320.777 36.831,320.718 36.785,321.200 36.441 C 321.715 36.073,321.698 36.011,321.076 36.006 C 320.678 36.003,320.464 35.820,320.600 35.600 C 320.736 35.380,320.567 35.200,320.224 35.200 C 319.881 35.200,319.600 35.009,319.600 34.776 C 319.600 34.543,319.443 34.450,319.251 34.568 C 319.059 34.687,318.371 34.293,317.721 33.692 C 316.322 32.397,314.800 31.467,314.527 31.739 C 314.234 32.032,312.800 30.695,312.800 30.129 C 312.800 29.858,312.152 29.515,311.360 29.366 C 310.351 29.177,310.082 28.994,310.460 28.754 C 310.834 28.518,310.654 28.410,309.876 28.406 C 309.258 28.403,308.855 28.235,308.980 28.033 C 309.105 27.830,308.700 27.554,308.081 27.418 C 307.462 27.282,306.701 26.817,306.389 26.385 C 306.078 25.953,305.615 25.600,305.361 25.600 C 305.106 25.600,304.674 25.330,304.400 25.000 C 304.126 24.670,303.564 24.400,303.151 24.400 C 302.738 24.400,302.400 24.220,302.400 24.000 C 302.400 23.780,302.145 23.600,301.833 23.600 C 301.522 23.600,301.207 23.425,301.133 23.212 C 301.012 22.858,299.814 22.506,298.476 22.430 C 298.188 22.413,298.035 22.265,298.134 22.100 C 298.234 21.935,298.065 21.568,297.758 21.284 C 297.329 20.888,297.200 20.882,297.200 21.261 C 297.200 21.531,296.936 21.404,296.613 20.976 C 296.290 20.549,296.020 20.332,296.013 20.494 C 295.993 20.941,292.758 19.155,292.535 18.575 C 292.428 18.295,291.453 17.945,290.370 17.796 C 289.286 17.647,288.500 17.362,288.623 17.162 C 288.746 16.963,288.466 16.800,288.000 16.800 C 287.534 16.800,287.264 16.620,287.400 16.400 C 287.546 16.164,287.103 15.997,286.324 15.994 C 285.410 15.990,285.171 15.879,285.553 15.637 C 285.955 15.383,285.735 15.213,284.753 15.018 C 282.834 14.638,281.200 13.963,281.200 13.551 C 281.200 13.358,281.065 13.234,280.900 13.276 C 280.278 13.434,278.000 12.721,278.000 12.368 C 278.000 12.166,277.809 12.000,277.576 12.000 C 277.343 12.000,277.254 12.163,277.377 12.363 C 277.500 12.562,277.166 12.520,276.635 12.269 C 276.103 12.018,275.772 11.645,275.900 11.439 C 276.027 11.233,275.854 11.170,275.515 11.300 C 275.177 11.430,274.463 11.310,273.929 11.033 C 273.395 10.756,272.653 10.575,272.279 10.630 C 271.906 10.684,271.600 10.565,271.600 10.365 C 271.600 10.164,271.330 10.000,271.000 10.000 C 270.670 10.000,270.400 9.820,270.400 9.600 C 270.400 9.380,269.635 9.187,268.700 9.172 C 267.440 9.151,267.207 9.062,267.800 8.827 C 268.414 8.584,268.111 8.442,266.500 8.218 C 265.345 8.057,264.400 7.754,264.400 7.545 C 264.400 7.336,264.175 7.194,263.900 7.230 C 262.381 7.427,261.171 7.167,261.435 6.700 C 261.654 6.312,261.602 6.306,261.204 6.674 C 260.807 7.042,260.562 7.019,260.117 6.574 C 259.801 6.258,258.926 6.000,258.171 6.000 C 257.417 6.000,256.800 5.855,256.800 5.678 C 256.800 5.501,256.040 5.312,255.110 5.257 C 254.181 5.202,253.306 4.971,253.166 4.744 C 253.025 4.517,252.796 4.347,252.655 4.366 C 251.411 4.532,250.273 4.341,250.742 4.045 C 251.084 3.828,250.679 3.735,249.642 3.794 C 248.739 3.845,248.000 3.732,248.000 3.543 C 248.000 3.354,247.685 3.203,247.300 3.206 C 246.702 3.211,246.687 3.269,247.200 3.600 C 247.561 3.833,247.610 3.990,247.324 3.994 C 247.062 3.997,246.736 3.820,246.600 3.600 C 246.464 3.380,245.733 3.200,244.976 3.200 C 244.219 3.200,243.600 3.020,243.600 2.800 C 243.600 2.580,243.096 2.400,242.480 2.400 C 241.864 2.400,241.144 2.184,240.880 1.920 C 240.507 1.547,240.399 1.569,240.394 2.020 C 240.390 2.418,240.295 2.456,240.094 2.141 C 239.927 1.880,238.066 1.556,235.800 1.393 C 233.600 1.235,231.740 0.947,231.667 0.753 C 231.593 0.559,231.143 0.413,230.667 0.428 C 229.823 0.455,229.821 0.466,230.600 0.836 C 231.273 1.156,231.242 1.176,230.400 0.963 C 229.850 0.823,228.230 0.575,226.800 0.413 C 223.592 0.047,193.130 -0.009,191.200 0.347 M113.962 189.205 C 112.788 190.440,112.677 191.014,113.825 189.912 C 114.448 189.314,114.877 188.759,114.779 188.679 C 114.680 188.599,114.313 188.836,113.962 189.205 M97.400 205.906 C 97.180 206.068,96.735 206.560,96.412 207.000 C 95.978 207.591,96.109 207.546,96.912 206.830 C 97.891 205.958,98.189 205.588,97.900 205.606 C 97.845 205.609,97.620 205.744,97.400 205.906 M64.524 514.200 C 64.526 515.520,64.601 516.012,64.690 515.293 C 64.779 514.574,64.777 513.494,64.686 512.893 C 64.595 512.292,64.522 512.880,64.524 514.200 M64.509 546.000 C 64.509 546.990,64.587 547.395,64.682 546.900 C 64.778 546.405,64.778 545.595,64.682 545.100 C 64.587 544.605,64.509 545.010,64.509 546.000 " stroke="none" fill="#94ec4c" fill-rule="evenodd"></path><path id="path1" d="M189.413 0.855 C 189.305 1.155,189.128 4.460,189.020 8.200 C 188.739 17.930,188.392 23.325,188.018 23.793 C 187.839 24.017,187.563 26.675,187.405 29.700 C 187.247 32.725,186.956 35.200,186.759 35.200 C 186.562 35.200,186.400 36.179,186.400 37.376 C 186.400 38.573,186.220 39.664,186.000 39.800 C 185.780 39.936,185.600 40.926,185.600 42.000 C 185.600 43.074,185.445 44.048,185.256 44.165 C 185.067 44.282,184.786 45.933,184.631 47.834 C 184.477 49.734,184.203 51.584,184.023 51.945 C 183.545 52.898,182.850 56.038,182.549 58.598 C 182.405 59.822,182.133 60.918,181.944 61.035 C 181.755 61.152,181.600 61.856,181.600 62.600 C 181.600 63.344,181.420 64.064,181.200 64.200 C 180.980 64.336,180.800 64.966,180.800 65.600 C 180.800 66.234,180.641 66.851,180.447 66.971 C 180.252 67.091,179.970 68.179,179.819 69.388 C 179.668 70.598,179.377 71.691,179.172 71.817 C 178.967 71.944,178.800 72.566,178.800 73.200 C 178.800 73.834,178.637 74.454,178.437 74.577 C 178.238 74.700,177.951 75.700,177.800 76.800 C 177.649 77.900,177.362 78.900,177.163 79.023 C 176.963 79.146,176.800 79.651,176.800 80.144 C 176.800 80.637,176.650 81.211,176.468 81.420 C 176.285 81.629,175.815 82.970,175.423 84.400 C 175.032 85.830,174.568 87.360,174.393 87.800 C 173.297 90.553,172.800 92.114,172.800 92.808 C 172.800 93.244,172.620 93.600,172.400 93.600 C 172.180 93.600,172.000 94.050,172.000 94.600 C 172.000 95.150,171.836 95.600,171.635 95.600 C 171.434 95.600,171.149 96.320,171.000 97.200 C 170.851 98.080,170.566 98.800,170.365 98.800 C 170.164 98.800,170.000 99.250,170.000 99.800 C 170.000 100.350,169.820 100.800,169.600 100.800 C 169.380 100.800,169.200 101.149,169.200 101.576 C 169.200 102.003,169.040 102.451,168.845 102.572 C 168.650 102.693,168.372 103.423,168.227 104.196 C 168.082 104.968,167.831 105.600,167.669 105.600 C 167.507 105.600,167.142 106.388,166.858 107.351 C 166.573 108.315,165.904 109.965,165.370 111.019 C 164.837 112.073,164.400 113.175,164.400 113.468 C 164.400 113.761,164.220 114.000,164.000 114.000 C 163.780 114.000,163.600 114.199,163.600 114.443 C 163.600 115.114,156.610 129.790,156.000 130.400 C 155.890 130.510,155.333 131.500,154.763 132.600 C 152.406 137.147,151.387 139.011,151.156 139.200 C 151.022 139.310,150.610 139.990,150.240 140.710 C 149.871 141.431,148.611 143.505,147.440 145.321 C 146.269 147.136,145.184 149.021,145.028 149.511 C 144.873 150.000,144.578 150.400,144.373 150.400 C 144.168 150.400,144.000 150.655,144.000 150.967 C 144.000 151.278,143.859 151.593,143.687 151.667 C 143.289 151.836,140.000 156.783,140.000 157.212 C 140.000 157.389,139.853 157.593,139.673 157.667 C 139.494 157.740,138.549 158.970,137.573 160.400 C 136.598 161.830,135.665 163.060,135.500 163.133 C 135.335 163.207,135.200 163.522,135.200 163.833 C 135.200 164.145,135.059 164.400,134.886 164.400 C 134.714 164.400,134.231 164.985,133.815 165.700 C 133.398 166.415,132.759 167.270,132.395 167.600 C 132.031 167.930,131.389 168.740,130.967 169.400 C 130.545 170.060,129.984 170.870,129.721 171.200 C 126.620 175.085,125.256 176.735,124.500 177.511 C 124.005 178.020,123.599 178.563,123.598 178.718 C 123.597 178.873,122.828 179.811,121.890 180.801 C 120.951 181.792,119.917 182.982,119.592 183.445 C 117.292 186.719,101.884 202.327,92.454 210.934 C 89.361 213.758,85.788 217.098,84.515 218.356 C 79.600 223.210,67.172 236.796,66.860 237.654 C 66.783 237.865,66.144 238.615,65.439 239.319 C 64.734 240.024,63.807 241.071,63.379 241.646 C 60.675 245.278,57.979 248.724,57.249 249.483 C 56.782 249.969,56.400 250.476,56.400 250.610 C 56.400 250.744,55.905 251.516,55.300 252.327 C 54.230 253.760,53.940 254.127,52.900 255.369 C 52.625 255.698,52.400 256.154,52.400 256.383 C 52.400 256.612,52.220 256.800,52.000 256.800 C 51.780 256.800,51.600 257.027,51.600 257.304 C 51.600 257.581,51.195 258.266,50.700 258.825 C 49.732 259.920,48.961 261.041,48.518 262.000 C 48.365 262.330,47.916 262.949,47.520 263.375 C 47.124 263.802,46.800 264.378,46.800 264.656 C 46.800 264.933,46.575 265.304,46.300 265.480 C 45.809 265.794,45.279 266.616,44.029 269.000 C 43.683 269.660,43.289 270.290,43.153 270.400 C 42.800 270.686,40.000 275.117,40.000 275.389 C 40.000 275.514,39.518 276.377,38.930 277.308 C 37.630 279.364,35.416 283.295,34.484 285.200 C 34.108 285.970,33.701 286.690,33.579 286.800 C 33.223 287.122,32.000 289.880,32.000 290.360 C 32.000 290.602,31.820 290.800,31.600 290.800 C 31.380 290.800,31.200 291.160,31.200 291.600 C 31.200 292.040,31.053 292.400,30.874 292.400 C 30.476 292.400,29.200 295.001,29.200 295.814 C 29.200 296.136,29.020 296.400,28.800 296.400 C 28.580 296.400,28.400 296.760,28.400 297.200 C 28.400 297.640,28.220 298.000,28.000 298.000 C 27.780 298.000,27.600 298.179,27.600 298.397 C 27.600 299.080,26.227 302.000,25.906 302.000 C 25.738 302.000,25.600 302.249,25.600 302.554 C 25.600 302.859,25.331 303.624,25.002 304.254 C 24.674 304.884,24.404 305.700,24.402 306.067 C 24.401 306.433,24.265 306.793,24.100 306.867 C 23.633 307.074,22.400 309.937,22.400 310.814 C 22.400 311.246,22.262 311.600,22.094 311.600 C 21.748 311.600,20.655 313.995,19.907 316.394 C 19.631 317.277,19.269 318.000,19.103 318.000 C 18.936 318.000,18.800 318.439,18.800 318.976 C 18.800 319.513,18.634 320.055,18.431 320.181 C 18.228 320.306,17.935 320.986,17.780 321.691 C 17.625 322.397,17.341 323.295,17.149 323.687 C 16.957 324.079,16.632 324.738,16.427 325.151 C 16.222 325.564,15.932 326.556,15.782 327.355 C 15.632 328.155,15.350 328.907,15.155 329.028 C 14.960 329.149,14.800 329.599,14.800 330.029 C 14.800 330.459,14.626 331.123,14.413 331.505 C 13.822 332.564,12.800 335.929,12.800 336.814 C 12.800 337.246,12.640 337.600,12.445 337.600 C 12.250 337.600,11.993 338.095,11.874 338.700 C 11.274 341.751,10.729 343.869,10.384 344.495 C 10.173 344.877,10.000 345.642,10.000 346.195 C 10.000 346.748,9.839 347.200,9.642 347.200 C 9.445 347.200,9.184 347.875,9.061 348.700 C 8.548 352.148,7.826 355.200,7.524 355.200 C 7.346 355.200,7.200 355.819,7.200 356.576 C 7.200 357.333,7.035 358.055,6.834 358.179 C 6.633 358.304,6.341 359.754,6.187 361.403 C 6.032 363.051,5.747 364.400,5.553 364.400 C 5.359 364.400,5.200 365.084,5.200 365.920 C 5.200 366.756,5.038 367.611,4.841 367.820 C 4.644 368.029,4.378 368.920,4.251 369.800 C 4.123 370.680,3.736 373.290,3.391 375.600 C 3.045 377.910,2.587 380.970,2.373 382.400 C 1.622 387.428,1.257 391.026,1.228 393.667 C 1.210 395.423,1.029 396.390,0.700 396.500 C -0.008 396.736,-0.031 447.413,0.676 448.839 C 0.938 449.368,1.271 452.276,1.417 455.302 C 1.563 458.328,1.844 460.903,2.041 461.025 C 2.238 461.147,2.400 462.216,2.400 463.400 C 2.400 464.584,2.556 465.649,2.748 465.768 C 2.939 465.886,3.225 467.652,3.384 469.691 C 3.543 471.731,3.816 473.580,3.991 473.800 C 4.167 474.020,4.420 474.965,4.555 475.900 C 4.690 476.835,4.912 478.365,5.049 479.300 C 5.185 480.235,5.421 481.090,5.572 481.200 C 5.813 481.375,6.272 483.759,7.055 488.900 C 7.181 489.725,7.445 490.400,7.642 490.400 C 7.839 490.400,8.005 490.895,8.011 491.500 C 8.023 492.770,9.307 497.840,9.721 498.254 C 9.874 498.408,10.000 499.043,10.000 499.667 C 10.000 500.290,10.159 500.800,10.354 500.800 C 10.549 500.800,10.831 501.787,10.982 502.994 C 11.133 504.200,11.423 505.291,11.628 505.417 C 11.833 505.544,12.000 506.076,12.000 506.600 C 12.000 507.124,12.180 507.664,12.400 507.800 C 12.620 507.936,12.800 508.390,12.800 508.810 C 12.800 509.525,13.638 512.410,14.365 514.200 C 14.544 514.640,15.010 515.990,15.401 517.200 C 15.792 518.410,16.267 519.571,16.456 519.780 C 16.645 519.989,16.800 520.574,16.800 521.080 C 16.800 521.586,16.960 522.000,17.155 522.000 C 17.350 522.000,17.606 522.495,17.725 523.100 C 18.069 524.855,18.969 527.200,19.298 527.200 C 19.464 527.200,19.600 527.572,19.600 528.026 C 19.600 528.480,20.050 529.835,20.600 531.037 C 21.150 532.240,21.600 533.398,21.600 533.612 C 21.600 533.825,21.735 534.002,21.900 534.003 C 22.065 534.005,22.536 535.085,22.947 536.403 C 23.358 537.722,23.853 538.800,24.047 538.800 C 24.241 538.800,24.400 539.071,24.400 539.402 C 24.400 539.733,24.850 540.937,25.400 542.077 C 25.950 543.217,26.400 544.386,26.400 544.675 C 26.400 544.964,26.566 545.200,26.768 545.200 C 26.971 545.200,27.255 545.740,27.400 546.400 C 27.545 547.060,27.829 547.600,28.032 547.600 C 28.234 547.600,28.400 547.960,28.400 548.400 C 28.400 548.840,28.540 549.200,28.712 549.200 C 28.884 549.200,29.373 550.100,29.800 551.200 C 30.227 552.300,30.716 553.200,30.888 553.200 C 31.060 553.200,31.200 553.560,31.200 554.000 C 31.200 554.440,31.366 554.800,31.568 554.800 C 31.771 554.800,32.055 555.340,32.200 556.000 C 32.345 556.660,32.587 557.200,32.737 557.200 C 32.888 557.200,33.342 557.965,33.747 558.900 C 34.151 559.835,34.599 560.690,34.741 560.800 C 34.884 560.910,35.608 562.170,36.350 563.600 C 37.093 565.030,37.912 566.470,38.170 566.800 C 38.428 567.130,38.987 568.075,39.411 568.900 C 39.835 569.725,40.321 570.400,40.491 570.400 C 40.661 570.400,40.800 570.760,40.800 571.200 C 40.800 571.640,40.960 572.000,41.157 572.000 C 41.353 572.000,41.626 572.450,41.764 573.000 C 41.902 573.550,42.192 574.000,42.408 574.000 C 42.623 574.000,42.800 574.270,42.800 574.600 C 42.800 574.930,42.937 575.200,43.105 575.200 C 43.411 575.200,44.133 576.385,44.629 577.700 C 44.774 578.085,45.052 578.400,45.247 578.400 C 45.441 578.400,45.600 578.575,45.600 578.788 C 45.600 579.250,49.661 585.341,50.097 585.533 C 50.264 585.607,50.400 585.844,50.400 586.060 C 50.400 586.458,52.018 588.754,53.300 590.175 C 53.685 590.602,54.000 591.084,54.000 591.247 C 54.000 591.410,54.233 591.781,54.517 592.071 C 54.970 592.534,57.003 595.253,59.890 599.256 C 60.380 599.935,61.235 600.944,61.790 601.500 C 62.346 602.055,62.800 602.646,62.800 602.812 C 62.800 602.979,63.336 603.719,63.991 604.458 C 66.229 606.978,66.601 607.417,68.190 609.408 C 69.065 610.504,70.909 612.570,72.288 614.000 C 73.667 615.430,74.797 616.714,74.798 616.853 C 74.801 617.280,83.931 626.400,84.355 626.400 C 85.362 626.400,85.133 624.330,84.001 623.200 C 83.542 622.742,82.400 620.293,82.400 619.768 C 82.400 619.455,82.220 619.200,82.000 619.200 C 81.780 619.200,81.600 619.019,81.600 618.798 C 81.600 618.577,81.150 617.463,80.600 616.323 C 80.050 615.183,79.600 614.014,79.600 613.725 C 79.600 613.436,79.442 613.200,79.250 613.200 C 79.058 613.200,78.792 612.661,78.660 612.002 C 78.529 611.344,78.056 610.050,77.610 609.127 C 77.165 608.205,76.800 607.160,76.800 606.805 C 76.800 606.450,76.643 605.989,76.451 605.780 C 76.260 605.571,75.780 604.320,75.386 603.000 C 74.991 601.680,74.539 600.420,74.380 600.200 C 74.221 599.980,73.964 599.036,73.810 598.102 C 73.656 597.168,73.366 596.303,73.165 596.178 C 72.964 596.054,72.800 595.513,72.800 594.976 C 72.800 594.439,72.641 594.000,72.446 594.000 C 72.251 594.000,71.969 593.013,71.818 591.806 C 71.667 590.600,71.377 589.509,71.172 589.383 C 70.967 589.256,70.800 588.533,70.800 587.776 C 70.800 587.019,70.660 586.400,70.489 586.400 C 70.204 586.400,69.444 582.851,68.924 579.097 C 68.809 578.271,68.555 577.495,68.358 577.374 C 68.161 577.252,68.000 576.353,68.000 575.376 C 68.000 574.399,67.843 573.600,67.652 573.600 C 67.355 573.600,66.561 567.186,66.673 565.700 C 66.694 565.425,66.551 565.200,66.356 565.200 C 66.160 565.200,66.000 564.041,66.000 562.624 C 66.000 561.207,65.848 559.953,65.662 559.838 C 65.476 559.723,65.200 557.688,65.048 555.315 C 64.896 552.942,64.643 549.470,64.486 547.600 C 64.141 543.498,64.125 518.692,64.464 514.200 C 64.597 512.440,64.831 508.750,64.984 506.000 C 65.137 503.250,65.422 500.640,65.616 500.200 C 65.810 499.760,66.061 498.230,66.174 496.800 C 66.690 490.259,67.371 484.800,67.671 484.800 C 67.852 484.800,68.000 483.900,68.000 482.800 C 68.000 481.700,68.163 480.800,68.361 480.800 C 68.560 480.800,68.813 479.945,68.923 478.900 C 69.321 475.129,70.154 470.196,70.425 470.000 C 70.578 469.890,70.802 469.080,70.923 468.200 C 71.357 465.043,72.044 461.788,72.418 461.105 C 72.628 460.723,72.800 459.969,72.800 459.429 C 72.800 458.889,72.966 458.345,73.169 458.219 C 73.371 458.094,73.663 456.821,73.816 455.390 C 73.969 453.959,74.253 452.691,74.447 452.571 C 74.641 452.451,74.800 452.001,74.800 451.571 C 74.800 451.141,74.958 450.477,75.151 450.095 C 75.702 449.004,76.344 446.757,76.635 444.900 C 76.782 443.965,77.059 443.200,77.251 443.200 C 77.443 443.200,77.600 442.570,77.600 441.800 C 77.600 441.030,77.763 440.400,77.962 440.400 C 78.162 440.400,78.449 439.500,78.600 438.400 C 78.751 437.300,79.038 436.400,79.238 436.400 C 79.437 436.400,79.600 435.980,79.600 435.467 C 79.600 434.953,79.716 434.417,79.859 434.275 C 80.242 433.891,81.572 429.910,81.587 429.100 C 81.594 428.715,81.780 428.400,82.000 428.400 C 82.220 428.400,82.400 427.961,82.400 427.424 C 82.400 426.887,82.556 426.351,82.747 426.232 C 82.939 426.114,83.211 425.294,83.352 424.409 C 83.494 423.524,83.787 422.800,84.005 422.800 C 84.222 422.800,84.400 422.361,84.400 421.824 C 84.400 421.287,84.580 420.736,84.800 420.600 C 85.020 420.464,85.201 420.048,85.202 419.676 C 85.204 419.304,85.474 418.484,85.802 417.854 C 86.131 417.224,86.400 416.369,86.400 415.954 C 86.400 415.539,86.559 415.200,86.753 415.200 C 86.947 415.200,87.442 414.122,87.853 412.803 C 88.264 411.485,88.735 410.405,88.900 410.403 C 89.065 410.402,89.200 410.151,89.200 409.846 C 89.200 409.541,89.469 408.776,89.798 408.146 C 90.126 407.516,90.396 406.685,90.398 406.300 C 90.399 405.915,90.580 405.600,90.800 405.600 C 91.020 405.600,91.200 405.347,91.200 405.038 C 91.200 404.729,91.543 403.784,91.963 402.938 C 92.383 402.092,93.193 400.458,93.763 399.307 C 94.333 398.156,94.800 396.983,94.800 396.700 C 94.800 396.417,95.213 395.559,95.718 394.793 C 96.223 394.027,96.983 392.590,97.407 391.600 C 97.831 390.610,98.282 389.710,98.410 389.600 C 98.537 389.490,98.956 388.680,99.341 387.800 C 99.725 386.920,100.306 385.750,100.632 385.200 C 100.957 384.650,101.613 383.390,102.090 382.400 C 102.566 381.410,103.057 380.510,103.182 380.400 C 103.306 380.290,103.766 379.480,104.204 378.600 C 104.642 377.720,105.135 376.940,105.300 376.867 C 105.465 376.793,105.600 376.572,105.600 376.374 C 105.600 376.177,106.191 375.067,106.914 373.908 C 107.637 372.748,108.578 371.125,109.005 370.300 C 109.432 369.475,109.921 368.800,110.091 368.800 C 110.261 368.800,110.400 368.552,110.400 368.249 C 110.400 367.946,110.670 367.474,111.000 367.200 C 111.330 366.926,111.600 366.379,111.600 365.984 C 111.600 365.590,111.735 365.207,111.900 365.133 C 112.386 364.918,114.400 362.092,114.400 361.627 C 114.400 361.392,114.552 361.200,114.737 361.200 C 114.922 361.200,115.417 360.525,115.837 359.700 C 116.257 358.875,116.915 357.909,117.300 357.553 C 117.685 357.197,118.000 356.745,118.000 356.549 C 118.000 356.353,118.450 355.707,119.000 355.113 C 119.550 354.520,120.000 353.925,120.000 353.791 C 120.000 353.528,121.879 350.939,122.700 350.071 C 122.975 349.781,123.200 349.419,123.200 349.267 C 123.200 349.115,123.827 348.273,124.592 347.396 C 125.358 346.518,125.988 345.659,125.992 345.487 C 125.997 345.314,126.495 344.649,127.100 344.008 C 128.346 342.689,129.582 341.226,131.135 339.231 C 131.721 338.478,132.740 337.288,133.400 336.585 C 135.375 334.484,137.600 331.945,137.600 331.793 C 137.600 331.607,148.407 320.800,148.593 320.800 C 148.790 320.800,151.908 318.032,153.211 316.700 C 153.802 316.095,154.447 315.598,154.643 315.596 C 154.839 315.593,155.610 314.963,156.356 314.196 C 157.102 313.428,157.875 312.800,158.074 312.800 C 158.273 312.800,158.860 312.395,159.377 311.900 C 159.894 311.405,161.235 310.370,162.356 309.600 C 163.477 308.830,164.890 307.794,165.497 307.298 C 166.104 306.801,166.915 306.294,167.300 306.171 C 167.685 306.047,168.000 305.778,168.000 305.573 C 168.000 305.368,168.270 305.200,168.600 305.200 C 168.930 305.200,169.200 305.041,169.200 304.847 C 169.200 304.652,169.515 304.388,169.900 304.258 C 170.650 304.007,172.071 303.154,172.400 302.760 C 172.726 302.369,174.456 301.523,174.612 301.679 C 174.691 301.758,173.717 302.538,172.448 303.411 C 168.250 306.301,155.686 318.091,152.852 321.800 C 152.347 322.460,151.229 323.754,150.367 324.677 C 149.505 325.599,148.800 326.461,148.800 326.594 C 148.800 326.726,148.350 327.320,147.800 327.913 C 147.250 328.507,146.800 329.119,146.800 329.275 C 146.800 329.431,146.350 330.044,145.800 330.638 C 145.250 331.231,144.800 331.917,144.800 332.162 C 144.800 332.407,144.440 332.832,144.000 333.107 C 143.560 333.382,143.200 333.860,143.200 334.170 C 143.200 334.480,143.065 334.793,142.900 334.867 C 142.465 335.060,140.000 338.753,140.000 339.212 C 140.000 339.425,139.820 339.600,139.600 339.600 C 139.380 339.600,139.200 339.870,139.200 340.200 C 139.200 340.530,139.061 340.800,138.891 340.800 C 138.721 340.800,138.228 341.475,137.795 342.300 C 137.362 343.125,136.914 343.890,136.800 344.000 C 136.686 344.110,136.234 344.920,135.796 345.800 C 135.358 346.680,134.908 347.490,134.796 347.600 C 134.684 347.710,134.234 348.520,133.796 349.400 C 133.358 350.280,132.910 351.090,132.800 351.200 C 132.301 351.699,130.400 355.657,130.400 356.197 C 130.400 356.529,130.220 356.800,130.000 356.800 C 129.780 356.800,129.600 357.070,129.600 357.400 C 129.600 357.730,129.428 358.000,129.218 358.000 C 129.008 358.000,128.718 358.630,128.574 359.400 C 128.429 360.170,128.151 360.800,127.955 360.800 C 127.760 360.800,127.600 361.070,127.600 361.400 C 127.600 361.730,127.420 362.000,127.200 362.000 C 126.980 362.000,126.800 362.267,126.800 362.592 C 126.800 362.918,126.080 364.700,125.200 366.552 C 124.320 368.404,123.600 370.208,123.600 370.560 C 123.600 370.912,123.420 371.200,123.200 371.200 C 122.980 371.200,122.800 371.436,122.800 371.725 C 122.800 372.014,122.435 373.005,121.990 373.927 C 121.544 374.850,121.071 376.144,120.940 376.802 C 120.808 377.461,120.543 378.000,120.350 378.000 C 120.158 378.000,120.000 378.339,120.000 378.754 C 120.000 379.169,119.731 380.024,119.402 380.654 C 119.074 381.284,118.804 382.104,118.802 382.476 C 118.801 382.848,118.620 383.264,118.400 383.400 C 118.180 383.536,118.000 384.051,118.000 384.544 C 118.000 385.037,117.846 385.611,117.658 385.820 C 117.233 386.292,116.000 390.126,116.000 390.975 C 116.000 391.319,115.820 391.600,115.600 391.600 C 115.380 391.600,115.200 392.039,115.200 392.576 C 115.200 393.113,115.025 393.661,114.812 393.793 C 114.598 393.925,114.304 394.930,114.159 396.025 C 114.013 397.121,113.738 398.115,113.547 398.233 C 113.356 398.351,113.200 398.876,113.200 399.400 C 113.200 399.924,113.033 400.456,112.828 400.583 C 112.623 400.709,112.333 401.800,112.182 403.006 C 112.031 404.213,111.749 405.200,111.554 405.200 C 111.359 405.200,111.200 405.729,111.200 406.376 C 111.200 407.023,111.020 407.664,110.800 407.800 C 110.580 407.936,110.397 408.442,110.394 408.924 C 110.391 409.406,110.129 410.520,109.812 411.400 C 109.495 412.280,109.227 413.585,109.218 414.300 C 109.208 415.015,109.020 415.600,108.800 415.600 C 108.580 415.600,108.400 416.219,108.400 416.976 C 108.400 417.733,108.238 418.453,108.041 418.575 C 107.843 418.697,107.555 420.058,107.400 421.598 C 107.245 423.139,106.957 424.400,106.759 424.400 C 106.562 424.400,106.400 425.109,106.400 425.976 C 106.400 426.843,106.220 427.664,106.000 427.800 C 105.780 427.936,105.600 428.669,105.600 429.429 C 105.600 430.189,105.423 431.123,105.206 431.505 C 104.990 431.887,104.636 433.550,104.420 435.200 C 104.205 436.850,103.842 439.145,103.614 440.300 C 102.730 444.786,102.457 446.670,102.429 448.500 C 102.413 449.545,102.220 450.400,102.000 450.400 C 101.778 450.400,101.600 451.467,101.600 452.800 C 101.600 454.133,101.422 455.200,101.200 455.200 C 100.977 455.200,100.800 456.275,100.800 457.626 C 100.800 458.961,100.630 460.369,100.423 460.757 C 100.216 461.144,99.920 463.742,99.765 466.530 C 99.610 469.319,99.342 471.600,99.170 471.600 C 98.998 471.600,98.785 473.175,98.697 475.100 C 98.609 477.025,98.420 479.041,98.276 479.579 C 98.133 480.118,97.894 483.943,97.745 488.079 C 97.597 492.216,97.323 495.600,97.138 495.600 C 96.952 495.600,96.800 498.660,96.800 502.400 C 96.800 506.667,96.651 509.200,96.400 509.200 C 95.876 509.200,95.848 551.684,96.371 552.220 C 96.576 552.429,96.801 553.216,96.871 553.969 C 97.010 555.442,98.000 556.221,98.000 554.857 C 98.000 554.412,98.180 553.936,98.400 553.800 C 98.620 553.664,98.800 553.023,98.800 552.376 C 98.800 551.729,98.957 551.200,99.149 551.200 C 99.341 551.200,99.614 550.472,99.756 549.583 C 99.899 548.693,100.171 547.658,100.361 547.283 C 101.335 545.359,102.800 541.158,102.800 540.287 C 102.800 539.909,102.959 539.600,103.153 539.600 C 103.347 539.600,103.842 538.522,104.253 537.203 C 104.664 535.885,105.135 534.805,105.300 534.803 C 105.465 534.802,105.600 534.350,105.600 533.800 C 105.600 533.250,105.760 532.800,105.957 532.800 C 106.253 532.800,106.842 531.363,106.967 530.333 C 106.985 530.187,107.135 529.932,107.300 529.767 C 107.465 529.602,107.600 529.137,107.600 528.733 C 107.600 528.330,107.751 528.000,107.935 528.000 C 108.119 528.000,108.614 526.965,109.033 525.700 C 109.453 524.435,109.902 523.310,110.030 523.200 C 110.159 523.090,110.520 522.389,110.832 521.642 C 111.144 520.895,112.525 518.037,113.900 515.291 C 115.275 512.545,116.400 510.073,116.400 509.798 C 116.400 509.523,116.653 509.088,116.962 508.831 C 117.272 508.575,118.118 507.157,118.844 505.682 C 119.569 504.207,120.261 502.910,120.381 502.800 C 120.502 502.690,120.958 501.880,121.396 501.000 C 121.834 500.120,122.284 499.310,122.396 499.200 C 122.508 499.090,122.883 498.460,123.229 497.800 C 124.258 495.837,124.984 494.613,125.246 494.400 C 125.381 494.290,125.619 493.795,125.773 493.300 C 125.928 492.805,126.222 492.400,126.427 492.400 C 126.632 492.400,126.800 492.192,126.800 491.938 C 126.800 491.684,127.250 490.886,127.800 490.164 C 128.350 489.443,128.800 488.755,128.800 488.634 C 128.800 488.308,131.667 483.882,132.274 483.271 C 132.563 482.981,132.800 482.578,132.800 482.376 C 132.800 482.037,133.569 480.979,134.647 479.837 C 134.893 479.576,135.220 478.966,135.374 478.481 C 135.528 477.997,135.793 477.600,135.964 477.600 C 136.134 477.600,136.613 476.970,137.028 476.200 C 137.443 475.430,137.893 474.800,138.028 474.800 C 138.163 474.800,138.613 474.170,139.028 473.400 C 139.443 472.630,139.921 472.000,140.091 472.000 C 140.261 472.000,140.400 471.812,140.400 471.583 C 140.400 471.353,140.850 470.680,141.400 470.087 C 141.950 469.493,142.400 468.872,142.400 468.705 C 142.400 468.538,143.030 467.734,143.800 466.918 C 144.570 466.101,145.200 465.244,145.200 465.012 C 145.200 464.780,145.650 464.252,146.200 463.839 C 146.750 463.426,147.202 462.888,147.203 462.644 C 147.205 462.400,147.798 461.570,148.521 460.800 C 149.244 460.030,150.117 458.991,150.461 458.491 C 150.806 457.992,151.743 456.875,152.544 456.009 C 153.345 455.143,154.000 454.321,154.000 454.182 C 154.000 454.043,154.765 453.176,155.700 452.257 C 156.635 451.338,158.374 449.451,159.564 448.065 C 162.129 445.076,178.370 428.800,178.787 428.800 C 178.945 428.800,179.968 427.945,181.059 426.900 C 182.151 425.855,184.023 424.190,185.219 423.200 C 188.209 420.725,189.047 420.004,190.674 418.500 C 191.447 417.785,192.199 417.200,192.344 417.200 C 192.489 417.200,193.056 416.795,193.604 416.300 C 194.152 415.805,195.320 414.867,196.200 414.214 C 197.080 413.562,198.038 412.797,198.329 412.514 C 198.619 412.232,199.037 412.000,199.257 412.000 C 199.836 412.000,200.652 411.096,200.966 410.107 C 201.115 409.637,202.984 407.483,205.119 405.320 C 218.335 391.932,230.467 376.243,243.340 355.892 C 244.143 354.623,244.800 353.501,244.800 353.400 C 244.800 353.299,245.466 352.177,246.281 350.908 C 249.246 346.287,256.531 332.869,260.760 324.240 C 265.384 314.804,265.677 314.176,268.600 307.400 C 269.644 304.980,270.836 302.245,271.249 301.322 C 271.662 300.399,272.000 299.542,272.000 299.418 C 272.000 299.293,272.347 298.428,272.772 297.496 C 273.196 296.563,274.019 294.540,274.600 293.000 C 275.182 291.460,275.811 289.840,275.999 289.400 C 276.920 287.240,279.851 278.992,282.181 272.000 C 289.229 250.853,294.530 229.911,298.787 206.400 C 299.245 203.870,299.789 200.900,299.995 199.800 C 300.202 198.700,300.571 196.360,300.816 194.600 C 301.061 192.840,301.432 190.230,301.640 188.800 C 304.635 168.251,304.762 143.257,301.953 127.200 C 298.268 106.134,293.534 92.159,284.337 75.200 C 276.159 60.120,261.470 42.887,247.000 31.398 C 241.048 26.671,229.371 18.400,228.651 18.400 C 228.542 18.400,226.957 17.488,225.127 16.373 C 217.572 11.772,203.793 5.426,195.200 2.592 C 192.670 1.758,190.377 0.903,190.105 0.692 C 189.771 0.435,189.545 0.488,189.413 0.855 M397.606 163.300 C 397.609 163.575,397.772 164.053,397.968 164.361 C 398.222 164.763,398.306 164.621,398.262 163.862 C 398.202 162.827,397.594 162.306,397.606 163.300 M398.800 175.176 C 398.800 175.603,398.979 176.063,399.197 176.198 C 399.428 176.341,399.559 176.014,399.510 175.422 C 399.412 174.235,398.800 174.024,398.800 175.176 M398.800 206.800 C 398.800 207.240,398.980 207.600,399.200 207.600 C 399.420 207.600,399.600 207.240,399.600 206.800 C 399.600 206.360,399.420 206.000,399.200 206.000 C 398.980 206.000,398.800 206.360,398.800 206.800 M349.164 321.117 C 348.050 322.418,347.733 323.092,348.545 322.433 C 349.185 321.913,350.196 320.400,349.903 320.400 C 349.834 320.400,349.501 320.723,349.164 321.117 M331.782 337.740 C 330.871 338.742,330.746 339.346,331.623 338.511 C 332.136 338.022,332.476 337.545,332.378 337.451 C 332.280 337.358,332.012 337.488,331.782 337.740 " stroke="none" fill="#acfc64" fill-rule="evenodd"></path><path id="path2" d="M362.199 357.483 C 361.430 358.299,360.800 359.099,360.800 359.261 C 360.800 359.691,344.833 375.600,344.401 375.600 C 344.200 375.600,343.032 376.580,341.806 377.777 C 340.580 378.974,339.231 380.063,338.809 380.197 C 338.386 380.331,337.933 380.783,337.800 381.200 C 337.667 381.617,337.167 382.084,336.688 382.236 C 336.208 382.388,335.341 383.021,334.761 383.642 C 334.180 384.264,333.592 384.658,333.453 384.519 C 333.314 384.380,333.200 384.477,333.200 384.733 C 333.200 384.990,332.973 385.200,332.695 385.200 C 332.417 385.200,331.852 385.650,331.439 386.200 C 331.026 386.750,330.419 387.200,330.091 387.200 C 329.763 387.200,329.203 387.534,328.847 387.943 C 328.491 388.351,327.795 388.813,327.300 388.970 C 326.805 389.126,326.400 389.422,326.400 389.627 C 326.400 389.832,326.196 390.000,325.947 390.000 C 325.698 390.000,325.203 390.334,324.847 390.743 C 324.491 391.151,323.795 391.613,323.300 391.770 C 322.805 391.926,322.400 392.222,322.400 392.427 C 322.400 392.632,322.130 392.800,321.800 392.800 C 321.470 392.800,321.200 392.962,321.200 393.161 C 321.200 393.359,320.658 393.711,319.995 393.942 C 319.332 394.173,318.683 394.641,318.552 394.981 C 318.421 395.321,318.078 395.600,317.790 395.600 C 317.108 395.600,314.806 396.910,314.803 397.300 C 314.801 397.465,314.530 397.600,314.200 397.600 C 313.870 397.600,313.600 397.760,313.600 397.955 C 313.600 398.151,313.009 398.422,312.287 398.557 C 311.565 398.693,310.715 399.163,310.399 399.602 C 310.082 400.041,309.593 400.400,309.312 400.400 C 309.030 400.400,308.800 400.588,308.800 400.818 C 308.800 401.047,308.575 401.208,308.300 401.174 C 307.518 401.079,306.000 401.655,306.000 402.047 C 306.000 402.241,305.730 402.400,305.400 402.400 C 305.070 402.400,304.800 402.560,304.800 402.755 C 304.800 402.951,304.170 403.229,303.400 403.374 C 302.630 403.518,302.000 403.808,302.000 404.018 C 302.000 404.228,301.640 404.400,301.200 404.400 C 300.760 404.400,300.400 404.580,300.400 404.800 C 300.400 405.020,300.221 405.200,300.003 405.200 C 299.320 405.200,296.400 406.573,296.400 406.894 C 296.400 407.062,295.950 407.200,295.400 407.200 C 294.850 407.200,294.400 407.372,294.400 407.582 C 294.400 407.792,293.770 408.082,293.000 408.226 C 292.230 408.371,291.600 408.649,291.600 408.845 C 291.600 409.040,291.150 409.200,290.600 409.200 C 290.050 409.200,289.600 409.378,289.600 409.595 C 289.600 409.813,288.876 410.106,287.991 410.248 C 287.106 410.389,286.286 410.661,286.168 410.853 C 286.049 411.044,285.513 411.200,284.976 411.200 C 284.439 411.200,284.000 411.380,284.000 411.600 C 284.000 411.820,283.730 412.000,283.400 412.000 C 283.070 412.000,282.800 412.163,282.800 412.362 C 282.800 412.562,281.900 412.849,280.800 413.000 C 279.700 413.151,278.800 413.438,278.800 413.638 C 278.800 413.837,278.361 414.000,277.824 414.000 C 277.287 414.000,276.744 414.167,276.617 414.372 C 276.491 414.577,275.400 414.867,274.194 415.018 C 272.987 415.169,272.000 415.451,272.000 415.646 C 272.000 415.841,271.460 416.000,270.800 416.000 C 270.140 416.000,269.600 416.180,269.600 416.400 C 269.600 416.620,269.071 416.800,268.424 416.800 C 267.777 416.800,267.146 416.963,267.023 417.162 C 266.900 417.362,266.439 417.431,266.000 417.316 C 265.553 417.199,265.200 417.304,265.200 417.553 C 265.200 417.799,264.570 418.000,263.800 418.000 C 263.030 418.000,262.400 418.180,262.400 418.400 C 262.400 418.620,261.860 418.800,261.200 418.800 C 260.540 418.800,260.000 418.963,260.000 419.162 C 260.000 419.362,259.100 419.649,258.000 419.800 C 256.900 419.951,256.000 420.238,256.000 420.438 C 256.000 420.637,255.550 420.800,255.000 420.800 C 254.450 420.800,254.000 420.960,254.000 421.155 C 254.000 421.501,252.092 422.011,250.700 422.037 C 250.315 422.044,250.000 422.219,250.000 422.425 C 250.000 422.631,249.550 422.800,249.000 422.800 C 248.450 422.800,248.000 422.980,248.000 423.200 C 248.000 423.420,247.640 423.600,247.200 423.600 C 246.760 423.600,246.400 423.757,246.400 423.949 C 246.400 424.141,245.680 424.413,244.800 424.554 C 243.920 424.694,243.200 424.987,243.200 425.205 C 243.200 425.422,242.840 425.600,242.400 425.600 C 241.960 425.600,241.600 425.780,241.600 426.000 C 241.600 426.220,241.161 426.400,240.624 426.400 C 240.087 426.400,239.534 426.583,239.396 426.807 C 239.258 427.030,238.977 427.109,238.772 426.983 C 238.568 426.856,238.400 426.943,238.400 427.176 C 238.400 427.409,238.040 427.600,237.600 427.600 C 237.160 427.600,236.800 427.780,236.800 428.000 C 236.800 428.220,236.530 428.400,236.200 428.400 C 235.870 428.400,235.600 428.560,235.600 428.755 C 235.600 428.951,234.970 429.229,234.200 429.374 C 233.430 429.518,232.800 429.808,232.800 430.018 C 232.800 430.228,232.530 430.400,232.200 430.400 C 231.870 430.400,231.600 430.560,231.600 430.755 C 231.600 430.951,230.970 431.229,230.200 431.374 C 229.430 431.518,228.800 431.808,228.800 432.018 C 228.800 432.228,228.455 432.400,228.033 432.400 C 227.612 432.400,227.207 432.535,227.133 432.700 C 226.940 433.135,224.435 434.400,223.768 434.400 C 223.455 434.400,223.200 434.580,223.200 434.800 C 223.200 435.020,222.930 435.200,222.600 435.200 C 222.270 435.200,222.000 435.377,222.000 435.592 C 222.000 435.808,221.550 436.098,221.000 436.236 C 220.450 436.374,220.000 436.647,220.000 436.843 C 220.000 437.040,219.640 437.200,219.200 437.200 C 218.760 437.200,218.400 437.339,218.400 437.509 C 218.400 437.679,217.725 438.172,216.900 438.604 C 216.075 439.036,215.130 439.681,214.800 440.037 C 214.470 440.394,213.795 440.813,213.300 440.970 C 212.805 441.126,212.400 441.422,212.400 441.627 C 212.400 441.832,212.083 442.000,211.696 442.000 C 211.309 442.000,210.763 442.367,210.483 442.816 C 210.203 443.264,209.806 443.527,209.600 443.400 C 209.394 443.273,208.997 443.536,208.717 443.984 C 208.437 444.433,207.891 444.800,207.504 444.800 C 207.117 444.800,206.800 444.968,206.800 445.173 C 206.800 445.378,206.395 445.674,205.900 445.830 C 205.405 445.987,204.640 446.501,204.200 446.974 C 203.760 447.446,202.908 448.079,202.307 448.380 C 201.705 448.682,201.108 449.259,200.980 449.664 C 200.851 450.069,200.463 450.400,200.116 450.400 C 199.770 450.400,198.971 450.940,198.340 451.600 C 197.709 452.260,196.999 452.800,196.761 452.800 C 196.523 452.800,195.541 453.610,194.579 454.600 C 193.617 455.590,192.726 456.400,192.598 456.400 C 192.061 456.400,187.200 461.075,187.200 461.591 C 187.200 461.785,186.795 462.006,186.300 462.082 C 185.805 462.157,185.445 462.440,185.500 462.709 C 185.555 462.979,185.465 463.158,185.300 463.107 C 184.827 462.961,183.217 464.505,183.450 464.881 C 183.565 465.067,183.503 465.170,183.312 465.110 C 182.844 464.962,178.571 469.209,178.710 469.684 C 178.770 469.890,178.667 469.965,178.481 469.850 C 178.136 469.637,176.800 470.960,176.800 471.516 C 176.800 471.685,176.450 472.076,176.021 472.385 C 175.593 472.693,175.334 473.093,175.445 473.273 C 175.556 473.453,175.471 473.600,175.255 473.600 C 174.731 473.600,171.200 477.151,171.200 477.678 C 171.200 477.907,170.480 478.792,169.600 479.646 C 168.720 480.500,168.000 481.391,168.000 481.626 C 168.000 481.861,167.370 482.648,166.600 483.374 C 165.830 484.100,165.200 484.858,165.200 485.059 C 165.200 485.259,164.850 485.676,164.421 485.985 C 163.993 486.293,163.734 486.693,163.845 486.873 C 163.956 487.053,163.857 487.200,163.624 487.200 C 163.391 487.200,163.200 487.388,163.200 487.618 C 163.200 487.848,162.750 488.486,162.200 489.036 C 161.650 489.586,161.200 490.258,161.200 490.530 C 161.200 490.801,160.840 491.283,160.400 491.600 C 159.960 491.917,159.600 492.407,159.600 492.688 C 159.600 492.970,159.409 493.200,159.176 493.200 C 158.943 493.200,158.864 493.380,159.000 493.600 C 159.136 493.820,159.057 494.000,158.824 494.000 C 158.591 494.000,158.400 494.230,158.400 494.512 C 158.400 494.793,158.040 495.283,157.600 495.600 C 157.160 495.917,156.800 496.503,156.800 496.901 C 156.800 497.299,156.530 497.729,156.200 497.855 C 155.870 497.982,155.600 498.361,155.600 498.699 C 155.600 499.036,155.340 499.512,155.022 499.756 C 154.704 500.000,154.389 500.470,154.322 500.800 C 154.255 501.130,153.885 501.635,153.500 501.923 C 153.115 502.210,152.800 502.705,152.800 503.023 C 152.800 503.340,152.634 503.600,152.432 503.600 C 152.229 503.600,151.935 504.185,151.778 504.900 C 151.621 505.615,151.171 506.425,150.778 506.700 C 150.385 506.976,149.945 507.741,149.800 508.400 C 149.655 509.060,149.371 509.600,149.168 509.600 C 148.966 509.600,148.800 509.960,148.800 510.400 C 148.800 510.840,148.620 511.200,148.400 511.200 C 148.180 511.200,148.000 511.470,148.000 511.800 C 148.000 512.130,147.823 512.400,147.608 512.400 C 147.392 512.400,147.102 512.850,146.964 513.400 C 146.826 513.950,146.553 514.400,146.357 514.400 C 146.160 514.400,146.000 514.760,146.000 515.200 C 146.000 515.640,145.820 516.000,145.600 516.000 C 145.380 516.000,145.200 516.179,145.200 516.397 C 145.200 517.080,143.827 520.000,143.506 520.000 C 143.338 520.000,143.200 520.450,143.200 521.000 C 143.200 521.550,143.009 522.000,142.776 522.000 C 142.543 522.000,142.456 522.168,142.583 522.372 C 142.709 522.577,142.630 522.858,142.407 522.996 C 142.183 523.134,142.000 523.597,142.000 524.024 C 142.000 524.451,141.864 524.800,141.698 524.800 C 141.304 524.800,140.489 526.657,140.159 528.303 C 140.017 529.016,139.743 529.600,139.550 529.600 C 139.358 529.600,139.200 530.050,139.200 530.600 C 139.200 531.150,139.041 531.600,138.847 531.600 C 138.508 531.600,137.937 532.884,137.837 533.872 C 137.811 534.131,137.657 534.476,137.495 534.638 C 137.333 534.801,137.200 535.443,137.200 536.067 C 137.200 536.690,137.020 537.200,136.800 537.200 C 136.580 537.200,136.400 537.470,136.400 537.800 C 136.400 538.130,136.237 538.400,136.038 538.400 C 135.838 538.400,135.551 539.300,135.400 540.400 C 135.249 541.500,134.962 542.400,134.762 542.400 C 134.563 542.400,134.400 542.839,134.400 543.376 C 134.400 543.913,134.220 544.464,134.000 544.600 C 133.780 544.736,133.600 545.341,133.600 545.944 C 133.600 546.547,133.415 547.225,133.189 547.451 C 132.964 547.676,132.668 548.792,132.534 549.931 C 132.399 551.069,132.134 552.000,131.944 552.000 C 131.755 552.000,131.600 552.630,131.600 553.400 C 131.600 554.170,131.438 554.800,131.241 554.800 C 131.043 554.800,130.755 556.060,130.600 557.600 C 130.445 559.140,130.157 560.400,129.959 560.400 C 129.762 560.400,129.600 561.120,129.600 562.000 C 129.600 562.880,129.437 563.600,129.237 563.600 C 129.038 563.600,128.746 565.310,128.590 567.400 C 128.433 569.490,128.146 571.200,127.952 571.200 C 127.759 571.200,127.600 572.089,127.600 573.176 C 127.600 574.263,127.420 575.264,127.200 575.400 C 126.980 575.536,126.800 576.972,126.800 578.590 C 126.800 580.589,126.640 581.587,126.300 581.700 C 125.570 581.943,125.570 617.256,126.300 617.500 C 126.610 617.603,126.800 618.416,126.800 619.633 C 126.800 620.715,126.980 621.600,127.200 621.600 C 127.420 621.600,127.600 622.230,127.600 623.000 C 127.600 623.770,127.762 624.400,127.959 624.400 C 128.157 624.400,128.445 625.660,128.600 627.200 C 128.755 628.740,129.043 630.000,129.241 630.000 C 129.438 630.000,129.600 630.450,129.600 631.000 C 129.600 631.550,129.763 632.000,129.962 632.000 C 130.162 632.000,130.449 632.900,130.600 634.000 C 130.751 635.100,131.038 636.000,131.238 636.000 C 131.437 636.000,131.600 636.450,131.600 637.000 C 131.600 637.550,131.757 638.000,131.950 638.000 C 132.142 638.000,132.405 638.527,132.534 639.171 C 132.813 640.565,134.433 644.146,134.868 644.329 C 135.037 644.400,135.290 645.075,135.432 645.829 C 135.573 646.583,135.849 647.200,136.045 647.200 C 136.240 647.200,136.400 647.470,136.400 647.800 C 136.400 648.130,136.560 648.400,136.757 648.400 C 136.953 648.400,137.226 648.850,137.364 649.400 C 137.502 649.950,137.792 650.400,138.008 650.400 C 138.223 650.400,138.400 650.760,138.400 651.200 C 138.400 651.640,138.580 652.000,138.800 652.000 C 139.020 652.000,139.200 652.270,139.200 652.600 C 139.200 652.930,139.377 653.200,139.592 653.200 C 139.808 653.200,140.098 653.650,140.236 654.200 C 140.374 654.750,140.647 655.200,140.843 655.200 C 141.040 655.200,141.200 655.479,141.200 655.819 C 141.200 656.160,141.650 656.855,142.200 657.365 C 142.750 657.875,143.200 658.495,143.200 658.742 C 143.200 658.990,143.560 659.418,144.000 659.693 C 144.440 659.968,144.800 660.445,144.800 660.753 C 144.800 661.061,145.340 661.829,146.000 662.460 C 146.660 663.091,147.200 663.773,147.200 663.977 C 147.200 664.493,159.900 677.200,160.417 677.200 C 160.649 677.200,161.255 677.650,161.765 678.200 C 162.275 678.750,162.814 679.200,162.963 679.200 C 163.113 679.200,163.720 679.650,164.313 680.200 C 164.907 680.750,165.553 681.200,165.749 681.200 C 165.945 681.200,166.397 681.534,166.753 681.943 C 167.109 682.351,167.805 682.813,168.300 682.970 C 168.795 683.126,169.200 683.422,169.200 683.627 C 169.200 683.832,169.541 684.000,169.957 684.000 C 170.374 684.000,170.818 684.270,170.945 684.600 C 171.071 684.930,171.541 685.200,171.987 685.200 C 172.434 685.200,172.800 685.380,172.800 685.600 C 172.800 685.820,173.070 686.000,173.400 686.000 C 173.730 686.000,174.000 686.143,174.000 686.318 C 174.000 686.493,174.810 686.970,175.800 687.378 C 176.790 687.787,177.600 688.273,177.600 688.460 C 177.600 688.647,177.870 688.800,178.200 688.800 C 178.530 688.800,178.800 688.960,178.800 689.155 C 178.800 689.350,179.610 689.631,180.600 689.779 C 181.590 689.928,182.400 690.204,182.400 690.393 C 182.400 690.882,184.629 691.308,185.591 691.003 C 186.196 690.811,186.400 690.400,186.400 689.373 C 186.400 688.618,186.571 688.000,186.780 688.000 C 186.989 688.000,187.282 686.920,187.432 685.600 C 187.581 684.280,187.860 683.200,188.052 683.200 C 188.243 683.200,188.400 682.750,188.400 682.200 C 188.400 681.650,188.563 681.200,188.762 681.200 C 188.962 681.200,189.249 680.300,189.400 679.200 C 189.551 678.100,189.838 677.200,190.038 677.200 C 190.237 677.200,190.400 676.750,190.400 676.200 C 190.400 675.650,190.563 675.200,190.762 675.200 C 190.962 675.200,191.249 674.300,191.400 673.200 C 191.551 672.100,191.838 671.200,192.038 671.200 C 192.237 671.200,192.400 670.660,192.400 670.000 C 192.400 669.340,192.536 668.800,192.702 668.800 C 193.096 668.800,193.911 666.943,194.241 665.297 C 194.383 664.584,194.658 664.000,194.850 664.000 C 195.043 664.000,195.200 663.550,195.200 663.000 C 195.200 662.450,195.380 662.000,195.600 662.000 C 195.820 662.000,196.000 661.821,196.000 661.603 C 196.000 660.920,197.373 658.000,197.694 658.000 C 197.862 658.000,198.000 657.550,198.000 657.000 C 198.000 656.450,198.172 656.000,198.382 656.000 C 198.592 656.000,198.882 655.370,199.026 654.600 C 199.171 653.830,199.449 653.200,199.645 653.200 C 199.840 653.200,200.000 652.930,200.000 652.600 C 200.000 652.270,200.160 652.000,200.355 652.000 C 200.551 652.000,200.829 651.370,200.974 650.600 C 201.118 649.830,201.408 649.200,201.618 649.200 C 201.828 649.200,202.000 648.840,202.000 648.400 C 202.000 647.960,202.180 647.600,202.400 647.600 C 202.620 647.600,202.800 647.330,202.800 647.000 C 202.800 646.670,202.977 646.400,203.192 646.400 C 203.408 646.400,203.698 645.950,203.836 645.400 C 203.974 644.850,204.210 644.400,204.361 644.400 C 204.512 644.400,204.970 643.590,205.378 642.600 C 205.787 641.610,206.273 640.800,206.460 640.800 C 206.647 640.800,206.800 640.530,206.800 640.200 C 206.800 639.870,206.943 639.600,207.118 639.600 C 207.293 639.600,207.770 638.790,208.178 637.800 C 208.587 636.810,209.073 636.000,209.260 636.000 C 209.447 636.000,209.600 635.730,209.600 635.400 C 209.600 635.070,209.768 634.800,209.973 634.800 C 210.178 634.800,210.474 634.395,210.630 633.900 C 210.787 633.405,211.223 632.730,211.600 632.400 C 211.977 632.070,212.413 631.395,212.570 630.900 C 212.726 630.405,213.022 630.000,213.227 630.000 C 213.432 630.000,213.600 629.730,213.600 629.400 C 213.600 629.070,213.750 628.800,213.932 628.800 C 214.115 628.800,214.513 628.305,214.816 627.700 C 215.119 627.095,215.754 626.240,216.226 625.800 C 216.699 625.360,217.213 624.595,217.370 624.100 C 217.526 623.605,217.822 623.200,218.027 623.200 C 218.232 623.200,218.400 622.996,218.400 622.747 C 218.400 622.498,218.788 621.958,219.261 621.547 C 219.735 621.136,219.977 620.800,219.800 620.800 C 219.623 620.800,219.865 620.464,220.339 620.053 C 220.812 619.642,221.200 619.169,221.200 619.000 C 221.200 618.832,221.830 618.100,222.600 617.374 C 223.370 616.648,224.000 615.864,224.000 615.632 C 224.000 615.400,224.900 614.306,226.000 613.200 C 227.100 612.094,228.000 610.934,228.000 610.622 C 228.000 610.309,228.360 609.940,228.800 609.800 C 229.240 609.660,229.600 609.395,229.600 609.210 C 229.600 608.733,245.195 593.200,245.674 593.200 C 245.893 593.200,246.859 592.390,247.821 591.400 C 248.783 590.410,249.674 589.600,249.802 589.600 C 250.061 589.600,250.768 589.040,252.201 587.700 C 252.730 587.205,253.312 586.800,253.494 586.800 C 253.675 586.800,254.419 586.169,255.147 585.398 C 255.874 584.627,256.611 584.083,256.783 584.190 C 256.956 584.296,257.525 583.872,258.049 583.246 C 258.572 582.620,259.405 581.982,259.900 581.827 C 260.395 581.673,260.800 581.378,260.800 581.173 C 260.800 580.968,261.070 580.800,261.400 580.800 C 261.730 580.800,262.000 580.653,262.000 580.474 C 262.000 580.295,262.630 579.848,263.400 579.481 C 264.170 579.113,264.800 578.630,264.800 578.406 C 264.800 578.183,265.160 578.000,265.600 578.000 C 266.040 578.000,266.400 577.861,266.400 577.691 C 266.400 577.521,267.030 577.043,267.800 576.628 C 268.570 576.213,269.200 575.742,269.200 575.580 C 269.200 575.419,269.650 575.174,270.200 575.036 C 270.750 574.898,271.200 574.608,271.200 574.392 C 271.200 574.177,271.470 574.000,271.800 574.000 C 272.130 574.000,272.400 573.820,272.400 573.600 C 272.400 573.380,272.648 573.200,272.951 573.200 C 273.254 573.200,273.726 572.930,274.000 572.600 C 274.274 572.270,274.836 572.000,275.249 572.000 C 275.662 572.000,276.000 571.820,276.000 571.600 C 276.000 571.380,276.270 571.200,276.600 571.200 C 276.930 571.200,277.200 571.023,277.200 570.808 C 277.200 570.592,277.650 570.302,278.200 570.164 C 278.750 570.026,279.200 569.753,279.200 569.557 C 279.200 569.360,279.548 569.200,279.973 569.200 C 280.398 569.200,280.854 568.861,280.985 568.448 C 281.123 568.013,281.749 567.590,282.466 567.447 C 283.149 567.310,283.998 566.865,284.354 566.456 C 284.709 566.048,285.405 565.587,285.900 565.430 C 286.395 565.274,286.800 564.978,286.800 564.773 C 286.800 564.568,286.993 564.400,287.229 564.400 C 287.464 564.400,287.908 564.175,288.215 563.900 C 289.581 562.675,290.000 562.390,290.000 562.684 C 290.001 562.858,290.406 562.531,290.900 561.957 C 291.395 561.384,292.205 560.787,292.700 560.630 C 293.195 560.474,293.600 560.178,293.600 559.973 C 293.600 559.768,293.832 559.600,294.117 559.600 C 294.401 559.600,295.301 558.970,296.118 558.200 C 296.934 557.430,297.704 556.800,297.829 556.800 C 297.955 556.800,298.308 556.575,298.615 556.300 C 299.844 555.198,300.378 554.800,300.631 554.800 C 300.777 554.800,301.672 553.990,302.621 553.000 C 303.569 552.010,304.528 551.200,304.751 551.200 C 304.975 551.200,306.521 549.850,308.187 548.200 C 309.853 546.550,311.320 545.200,311.447 545.200 C 311.785 545.200,320.400 536.587,320.400 536.249 C 320.400 536.091,321.660 534.694,323.200 533.145 C 324.740 531.595,326.000 530.171,326.000 529.979 C 326.000 529.788,326.720 528.918,327.600 528.047 C 328.480 527.176,329.200 526.351,329.200 526.214 C 329.200 525.940,329.741 525.253,331.100 523.799 C 331.595 523.270,332.000 522.725,332.000 522.590 C 332.000 522.454,332.225 522.092,332.500 521.785 C 333.607 520.551,334.000 520.021,334.000 519.763 C 334.000 519.614,334.450 519.075,335.000 518.565 C 335.550 518.055,336.000 517.379,336.000 517.062 C 336.000 516.745,336.279 516.379,336.619 516.248 C 336.959 516.117,337.427 515.468,337.658 514.805 C 337.889 514.142,338.241 513.600,338.439 513.600 C 338.638 513.600,338.800 513.330,338.800 513.000 C 338.800 512.670,338.968 512.400,339.173 512.400 C 339.378 512.400,339.674 511.995,339.830 511.500 C 339.987 511.005,340.404 510.327,340.757 509.994 C 341.545 509.252,342.344 508.035,342.658 507.100 C 342.788 506.715,343.052 506.400,343.247 506.400 C 343.441 506.400,343.600 506.040,343.600 505.600 C 343.600 505.160,343.777 504.800,343.992 504.800 C 344.208 504.800,344.498 504.350,344.636 503.800 C 344.774 503.250,345.047 502.800,345.243 502.800 C 345.440 502.800,345.600 502.530,345.600 502.200 C 345.600 501.870,345.762 501.600,345.960 501.600 C 346.159 501.600,346.654 500.791,347.060 499.801 C 347.467 498.812,347.935 498.002,348.100 498.001 C 348.265 498.001,348.400 497.730,348.400 497.400 C 348.400 497.070,348.560 496.800,348.755 496.800 C 348.951 496.800,349.229 496.170,349.374 495.400 C 349.518 494.630,349.808 494.000,350.018 494.000 C 350.228 494.000,350.400 493.640,350.400 493.200 C 350.400 492.760,350.566 492.400,350.768 492.400 C 350.971 492.400,351.255 491.860,351.400 491.200 C 351.545 490.540,351.829 490.000,352.032 490.000 C 352.234 490.000,352.400 489.640,352.400 489.200 C 352.400 488.760,352.580 488.400,352.800 488.400 C 353.020 488.400,353.200 488.130,353.200 487.800 C 353.200 487.470,353.360 487.200,353.555 487.200 C 353.751 487.200,354.029 486.570,354.174 485.800 C 354.318 485.030,354.608 484.400,354.818 484.400 C 355.028 484.400,355.200 484.040,355.200 483.600 C 355.200 483.160,355.357 482.800,355.549 482.800 C 355.741 482.800,356.013 482.080,356.154 481.200 C 356.294 480.320,356.587 479.600,356.805 479.600 C 357.022 479.600,357.200 479.150,357.200 478.600 C 357.200 478.050,357.380 477.600,357.600 477.600 C 357.820 477.600,358.000 477.240,358.000 476.800 C 358.000 476.360,358.157 476.000,358.349 476.000 C 358.541 476.000,358.813 475.280,358.954 474.400 C 359.094 473.520,359.387 472.800,359.605 472.800 C 359.822 472.800,360.000 472.350,360.000 471.800 C 360.000 471.250,360.163 470.800,360.362 470.800 C 360.562 470.800,360.849 469.900,361.000 468.800 C 361.151 467.700,361.438 466.800,361.638 466.800 C 361.837 466.800,362.000 466.260,362.000 465.600 C 362.000 464.940,362.180 464.400,362.400 464.400 C 362.620 464.400,362.800 463.950,362.800 463.400 C 362.800 462.850,362.971 462.400,363.180 462.400 C 363.389 462.400,363.682 461.320,363.832 460.000 C 363.981 458.680,364.260 457.600,364.452 457.600 C 364.643 457.600,364.800 457.150,364.800 456.600 C 364.800 456.050,364.962 455.600,365.159 455.600 C 365.357 455.600,365.645 454.340,365.800 452.800 C 365.955 451.260,366.243 450.000,366.441 450.000 C 366.638 450.000,366.800 449.280,366.800 448.400 C 366.800 447.520,366.980 446.800,367.200 446.800 C 367.420 446.800,367.600 446.181,367.600 445.424 C 367.600 444.667,367.761 443.948,367.957 443.826 C 368.154 443.705,368.443 441.984,368.600 440.003 C 368.757 438.021,369.046 436.400,369.242 436.400 C 369.439 436.400,369.600 435.335,369.600 434.033 C 369.600 432.732,369.775 431.607,369.989 431.533 C 370.204 431.459,370.499 428.416,370.651 424.700 C 370.801 421.015,371.076 418.000,371.262 418.000 C 371.448 418.000,371.600 412.150,371.600 405.000 C 371.600 397.850,371.447 392.000,371.260 392.000 C 371.073 392.000,370.794 388.985,370.640 385.300 C 370.485 381.615,370.188 378.540,369.979 378.467 C 369.771 378.393,369.600 377.448,369.600 376.367 C 369.600 375.285,369.441 374.400,369.248 374.400 C 369.054 374.400,368.767 372.690,368.610 370.600 C 368.454 368.510,368.162 366.800,367.963 366.800 C 367.763 366.800,367.600 366.091,367.600 365.224 C 367.600 364.357,367.420 363.536,367.200 363.400 C 366.980 363.264,366.800 362.623,366.800 361.976 C 366.800 361.329,366.620 360.800,366.400 360.800 C 366.180 360.800,365.998 360.125,365.995 359.300 C 365.981 355.577,364.614 354.923,362.199 357.483 " stroke="none" fill="#fcdc3c" fill-rule="evenodd"></path><path id="path3" d="" stroke="none" fill="#ecec54" fill-rule="evenodd"></path><path id="path4" d="" stroke="none" fill="#c4ec50" fill-rule="evenodd"></path></g></svg>